# xmcd CD database file
#
# Track frame offsets:
#	150
#	19802
#	35667
#
# Disc length: 643 seconds
#
# Revision: 0
# Processed by: cddbd v1.5.1PL0 Copyright (c) Steve Scherf et al.
# Submitted via: CDex 1.51
#
DISCID=1e028103
DTITLE=THE JERRY LEE PAHNTOM - 世界に告ぐ
DYEAR=1999
DGENRE=Rock
TTITLE0=世界に告ぐ
TTITLE1=BUGGY BUS STOP!
TTITLE2=DITTY BOP A LULA
EXTD=YEAR: 1999.09/08
EXTT0=
EXTT1=
EXTT2=
PLAYORDER=
